<svg width="16" height="16" viewBox="0 0 16 16" fill="none" xmlns="http://www.w3.org/2000/svg">
<rect x="6.69763" y="4.57153" width="2.23252" height="6.85719" fill="#B3B3B3"/>
<rect x="4.46509" y="9.14307" width="2.28573" height="6.69756" transform="rotate(-90 4.46509 9.14307)" fill="#B3B3B3"/>
<path d="M15.6276 8.00006C15.6276 12.4184 12.1293 16.0001 7.81382 16.0001C3.49837 16.0001 0 12.4184 0 8.00006C0 3.58175 3.49837 0 7.81382 0C12.1293 0 15.6276 3.58175 15.6276 8.00006ZM1.50085 8.00006C1.50085 11.5697 4.32726 14.4635 7.81382 14.4635C11.3004 14.4635 14.1268 11.5697 14.1268 8.00006C14.1268 4.4304 11.3004 1.53662 7.81382 1.53662C4.32726 1.53662 1.50085 4.4304 1.50085 8.00006Z" fill="#B3B3B3"/>
</svg>
