<svg width="16" height="16" viewBox="0 0 16 16" fill="none" xmlns="http://www.w3.org/2000/svg">
<path d="M13.8912 0H1.73641C0.781382 0 0 0.781382 0 1.73641V13.8912C0 14.8463 0.781382 15.6276 1.73641 15.6276H13.8912C14.8463 15.6276 15.6276 14.8463 15.6276 13.8912V1.73641C15.6276 0.781382 14.8463 0 13.8912 0ZM8.68203 12.1548H4.34101C3.8635 12.1548 3.47281 11.7641 3.47281 11.2866C3.47281 10.8091 3.8635 10.4184 4.34101 10.4184H8.68203C9.15954 10.4184 9.55023 10.8091 9.55023 11.2866C9.55023 11.7641 9.15954 12.1548 8.68203 12.1548ZM11.2866 8.68203H4.34101C3.8635 8.68203 3.47281 8.29133 3.47281 7.81382C3.47281 7.33631 3.8635 6.94562 4.34101 6.94562H11.2866C11.7641 6.94562 12.1548 7.33631 12.1548 7.81382C12.1548 8.29133 11.7641 8.68203 11.2866 8.68203ZM11.2866 5.20922H4.34101C3.8635 5.20922 3.47281 4.81852 3.47281 4.34101C3.47281 3.8635 3.8635 3.47281 4.34101 3.47281H11.2866C11.7641 3.47281 12.1548 3.8635 12.1548 4.34101C12.1548 4.81852 11.7641 5.20922 11.2866 5.20922Z" fill="#B3B3B3"/>
</svg>
