<svg width="16" height="17" viewBox="0 0 16 17" fill="none" xmlns="http://www.w3.org/2000/svg">
<path d="M14.9463 7.10742L15.4443 7.1123L15.4629 13.625C15.4668 15.0264 14.3514 16.1562 12.9648 16.1562C12.548 16.1561 12.155 16.0517 11.8066 15.8711C12.0423 15.7016 12.1116 15.292 12.1318 14.9092C12.3706 15.0613 12.6523 15.1504 12.9541 15.1504C13.7946 15.1502 14.47 14.4657 14.4678 13.6162L14.4629 11.6465L13.1172 11.6484C12.7388 11.6484 12.3903 11.7712 12.1074 11.9795C12.0766 11.5564 12.0161 11.2109 11.8945 10.9326C12.2582 10.7484 12.6684 10.6427 13.1045 10.6426H14.4609L14.4502 7.10352L14.9463 7.10742ZM9.43164 9.96973C10.925 9.96976 11.5937 10.2443 11.8945 10.9326C11.0126 11.3792 10.4093 12.2984 10.4092 13.3672V13.5723C10.4092 14.5727 10.9793 15.4422 11.8066 15.8711C11.7355 15.9222 11.6493 15.9521 11.5449 15.9521H2.31836C1.75954 15.9521 1.30276 15.5034 1.30273 14.9551V13.958C1.30276 11.306 6.71858 9.96973 9.43164 9.96973ZM12.1074 11.9795C12.1389 12.411 12.1406 12.9226 12.1406 13.5244V14.5645C12.1406 14.671 12.1382 14.7889 12.1318 14.9092C11.6957 14.6314 11.4043 14.1411 11.4043 13.584V13.3789C11.4044 12.8021 11.6808 12.2936 12.1074 11.9795ZM9.43164 0C11.6772 0.00015296 13.4961 1.785 13.4961 3.98828C13.4959 6.19143 11.6771 7.97543 9.43164 7.97559C7.18608 7.97559 5.36734 6.19153 5.36719 3.98828C5.36719 1.78491 7.18599 0 9.43164 0Z" fill="#B3B3B3"/>
</svg>
