<svg width="15" height="16" viewBox="0 0 15 16" fill="none" xmlns="http://www.w3.org/2000/svg">
<path d="M7.24316 0.571289C7.40132 0.476576 7.59868 0.476576 7.75684 0.571289L14.2568 4.47168C14.4074 4.56204 14.5 4.72476 14.5 4.90039V14.834C14.5 15.1101 14.2761 15.334 14 15.334H10C9.72386 15.334 9.5 15.1101 9.5 14.834V11.334C9.5 10.5056 8.82843 9.83398 8 9.83398H7C6.17157 9.83398 5.5 10.5056 5.5 11.334V14.834C5.5 15.1101 5.27614 15.334 5 15.334H1C0.723858 15.334 0.5 15.1101 0.5 14.834V4.90039C0.5 4.72476 0.592562 4.56204 0.743164 4.47168L7.24316 0.571289Z" stroke="#B3B3B3"/>
</svg>
