<svg width="11" height="10" viewBox="0 0 11 10" fill="none" xmlns="http://www.w3.org/2000/svg">
<path d="M9.33338 4.375C9.33338 6.79125 7.24403 8.75 4.66669 8.75C2.08935 8.75 0 6.79125 0 4.375C0 1.95875 2.08935 0 4.66669 0C7.24403 0 9.33338 1.95875 9.33338 4.375ZM0.798599 4.375C0.798599 6.37776 2.5304 8.00132 4.66669 8.00132C6.80298 8.00132 8.53478 6.37776 8.53478 4.375C8.53478 2.37224 6.80298 0.748684 4.66669 0.748684C2.5304 0.748684 0.798599 2.37224 0.798599 4.375Z" fill="#B3B3B3"/>
<line x1="0.75" y1="-0.75" x2="2.90529" y2="-0.75" transform="matrix(0.729539 0.683939 -0.729539 0.683939 7.33325 7.5)" stroke="#B3B3B3" stroke-width="1.5" stroke-linecap="round"/>
</svg>
